<svg width="14" height="14" viewBox="0 0 14 14" fill="none" xmlns="http://www.w3.org/2000/svg">
<g clip-path="url(#clip0_40_339)">
<path d="M2.91667 5.83334C2.275 5.83334 1.75 6.35834 1.75 7C1.75 7.64167 2.275 8.16667 2.91667 8.16667C3.55833 8.16667 4.08333 7.64167 4.08333 7C4.08333 6.35834 3.55833 5.83334 2.91667 5.83334ZM11.0833 5.83334C10.4417 5.83334 9.91667 6.35834 9.91667 7C9.91667 7.64167 10.4417 8.16667 11.0833 8.16667C11.725 8.16667 12.25 7.64167 12.25 7C12.25 6.35834 11.725 5.83334 11.0833 5.83334ZM7 5.83334C6.35833 5.83334 5.83333 6.35834 5.83333 7C5.83333 7.64167 6.35833 8.16667 7 8.16667C7.64167 8.16667 8.16667 7.64167 8.16667 7C8.16667 6.35834 7.64167 5.83334 7 5.83334Z" fill="#B1B5C4"/>
</g>
<defs>
<clipPath id="clip0_40_339">
<rect width="14" height="14" fill="white"/>
</clipPath>
</defs>
</svg>
