<svg width="59" height="22" viewBox="0 0 59 22" fill="none" xmlns="http://www.w3.org/2000/svg">
<rect width="20" height="20" transform="translate(1 1)" fill="white"/>
<circle cx="11" cy="11" r="10.5" fill="#353945" stroke="white"/>
<path d="M7.72916 13.434L7.72222 13.441C7.62847 13.2361 7.56944 13.0035 7.54514 12.7465C7.56944 13 7.63541 13.2292 7.72916 13.434Z" fill="white"/>
<path d="M9.95835 10.4375C10.4147 10.4375 10.7847 10.0675 10.7847 9.6111C10.7847 9.1547 10.4147 8.78471 9.95835 8.78471C9.50194 8.78471 9.13196 9.1547 9.13196 9.6111C9.13196 10.0675 9.50194 10.4375 9.95835 10.4375Z" fill="white"/>
<path d="M12.4549 7.52777H9.54516C8.28127 7.52777 7.5278 8.28124 7.5278 9.54513V12.4549C7.5278 12.8333 7.59377 13.1632 7.72225 13.441C8.02086 14.1007 8.65975 14.4722 9.54516 14.4722H12.4549C13.7188 14.4722 14.4722 13.7187 14.4722 12.4549V11.6597V9.54513C14.4722 8.28124 13.7188 7.52777 12.4549 7.52777ZM13.9063 11.1736C13.6354 10.941 13.1979 10.941 12.9271 11.1736L11.4827 12.4132C11.2118 12.6458 10.7743 12.6458 10.5035 12.4132L10.3854 12.316C10.1389 12.1007 9.74655 12.0799 9.46877 12.2674L8.17016 13.1389C8.09377 12.9444 8.04863 12.7187 8.04863 12.4549V9.54513C8.04863 8.56597 8.566 8.0486 9.54516 8.0486H12.4549C13.4341 8.0486 13.9514 8.56597 13.9514 9.54513V11.2118L13.9063 11.1736Z" fill="white"/>
<circle cx="23" cy="11" r="10.5" fill="#353945" stroke="white"/>
<path d="M19.7292 13.434L19.7222 13.441C19.6285 13.2361 19.5694 13.0035 19.5451 12.7465C19.5694 13 19.6354 13.2292 19.7292 13.434Z" fill="white"/>
<path d="M21.9583 10.4375C22.4147 10.4375 22.7847 10.0675 22.7847 9.6111C22.7847 9.1547 22.4147 8.78471 21.9583 8.78471C21.5019 8.78471 21.132 9.1547 21.132 9.6111C21.132 10.0675 21.5019 10.4375 21.9583 10.4375Z" fill="white"/>
<path d="M24.4549 7.52777H21.5452C20.2813 7.52777 19.5278 8.28124 19.5278 9.54513V12.4549C19.5278 12.8333 19.5938 13.1632 19.7222 13.441C20.0209 14.1007 20.6597 14.4722 21.5452 14.4722H24.4549C25.7188 14.4722 26.4722 13.7187 26.4722 12.4549V11.6597V9.54513C26.4722 8.28124 25.7188 7.52777 24.4549 7.52777ZM25.9063 11.1736C25.6354 10.941 25.1979 10.941 24.9271 11.1736L23.4827 12.4132C23.2118 12.6458 22.7743 12.6458 22.5035 12.4132L22.3854 12.316C22.1389 12.1007 21.7466 12.0799 21.4688 12.2674L20.1702 13.1389C20.0938 12.9444 20.0486 12.7187 20.0486 12.4549V9.54513C20.0486 8.56597 20.566 8.0486 21.5452 8.0486H24.4549C25.4341 8.0486 25.9514 8.56597 25.9514 9.54513V11.2118L25.9063 11.1736Z" fill="white"/>
<circle cx="35" cy="11" r="10.5" fill="#353945" stroke="white"/>
<path d="M31.7292 13.434L31.7222 13.441C31.6285 13.2361 31.5694 13.0035 31.5451 12.7465C31.5694 13 31.6354 13.2292 31.7292 13.434Z" fill="white"/>
<path d="M33.9583 10.4375C34.4147 10.4375 34.7847 10.0675 34.7847 9.6111C34.7847 9.1547 34.4147 8.78471 33.9583 8.78471C33.5019 8.78471 33.132 9.1547 33.132 9.6111C33.132 10.0675 33.5019 10.4375 33.9583 10.4375Z" fill="white"/>
<path d="M36.4549 7.52777H33.5452C32.2813 7.52777 31.5278 8.28124 31.5278 9.54513V12.4549C31.5278 12.8333 31.5938 13.1632 31.7222 13.441C32.0209 14.1007 32.6597 14.4722 33.5452 14.4722H36.4549C37.7188 14.4722 38.4722 13.7187 38.4722 12.4549V11.6597V9.54513C38.4722 8.28124 37.7188 7.52777 36.4549 7.52777ZM37.9063 11.1736C37.6354 10.941 37.1979 10.941 36.9271 11.1736L35.4827 12.4132C35.2118 12.6458 34.7743 12.6458 34.5035 12.4132L34.3854 12.316C34.1389 12.1007 33.7466 12.0799 33.4688 12.2674L32.1702 13.1389C32.0938 12.9444 32.0486 12.7187 32.0486 12.4549V9.54513C32.0486 8.56597 32.566 8.0486 33.5452 8.0486H36.4549C37.4341 8.0486 37.9514 8.56597 37.9514 9.54513V11.2118L37.9063 11.1736Z" fill="white"/>
<circle cx="48" cy="11" r="10.5" fill="#E6E8EC" stroke="white"/>
<path d="M47.7118 11.345H46.0108V13.091H44.8228V11.345H43.1218V10.247H44.8228V8.501H46.0108V10.247H47.7118V11.345ZM49.3212 12.578C49.8972 12.098 50.3562 11.699 50.6982 11.381C51.0402 11.057 51.3252 10.721 51.5532 10.373C51.7812 10.025 51.8952 9.683 51.8952 9.347C51.8952 9.041 51.8232 8.801 51.6792 8.627C51.5352 8.453 51.3132 8.366 51.0132 8.366C50.7132 8.366 50.4822 8.468 50.3202 8.672C50.1582 8.87 50.0742 9.143 50.0682 9.491H48.8442C48.8682 8.771 49.0812 8.225 49.4832 7.853C49.8912 7.481 50.4072 7.295 51.0312 7.295C51.7152 7.295 52.2402 7.478 52.6062 7.844C52.9722 8.204 53.1552 8.681 53.1552 9.275C53.1552 9.743 53.0292 10.19 52.7772 10.616C52.5252 11.042 52.2372 11.414 51.9132 11.732C51.5892 12.044 51.1662 12.422 50.6442 12.866H53.2992V13.91H48.8532V12.974L49.3212 12.578Z" fill="#353945"/>
</svg>
