<svg width="74" height="26" viewBox="0 0 74 26" fill="none" xmlns="http://www.w3.org/2000/svg">
<rect width="24" height="24" transform="translate(1 1)" fill="white"/>
<circle cx="13" cy="13" r="12.5" fill="#353945" stroke="white"/>
<path d="M9.07499 15.9208L9.06666 15.9292C8.95416 15.6833 8.88332 15.4042 8.85416 15.0958C8.88332 15.4 8.96249 15.675 9.07499 15.9208Z" fill="white"/>
<path d="M11.75 12.325C12.2977 12.325 12.7417 11.881 12.7417 11.3333C12.7417 10.7857 12.2977 10.3417 11.75 10.3417C11.2023 10.3417 10.7583 10.7857 10.7583 11.3333C10.7583 11.881 11.2023 12.325 11.75 12.325Z" fill="white"/>
<path d="M14.7458 8.83334H11.2542C9.73751 8.83334 8.83334 9.73751 8.83334 11.2542V14.7458C8.83334 15.2 8.91251 15.5958 9.06668 15.9292C9.42501 16.7208 10.1917 17.1667 11.2542 17.1667H14.7458C16.2625 17.1667 17.1667 16.2625 17.1667 14.7458V13.7917V11.2542C17.1667 9.73751 16.2625 8.83334 14.7458 8.83334ZM16.4875 13.2083C16.1625 12.9292 15.6375 12.9292 15.3125 13.2083L13.5792 14.6958C13.2542 14.975 12.7292 14.975 12.4042 14.6958L12.2625 14.5792C11.9667 14.3208 11.4958 14.2958 11.1625 14.5208L9.60418 15.5667C9.51251 15.3333 9.45834 15.0625 9.45834 14.7458V11.2542C9.45834 10.0792 10.0792 9.45834 11.2542 9.45834H14.7458C15.9208 9.45834 16.5417 10.0792 16.5417 11.2542V13.2542L16.4875 13.2083Z" fill="white"/>
<circle cx="29" cy="13" r="12.5" fill="#353945" stroke="white"/>
<path d="M25.075 15.9208L25.0667 15.9292C24.9542 15.6833 24.8833 15.4042 24.8542 15.0958C24.8833 15.4 24.9625 15.675 25.075 15.9208Z" fill="white"/>
<path d="M27.75 12.325C28.2977 12.325 28.7417 11.881 28.7417 11.3333C28.7417 10.7857 28.2977 10.3417 27.75 10.3417C27.2023 10.3417 26.7583 10.7857 26.7583 11.3333C26.7583 11.881 27.2023 12.325 27.75 12.325Z" fill="white"/>
<path d="M30.7458 8.83334H27.2542C25.7375 8.83334 24.8333 9.73751 24.8333 11.2542V14.7458C24.8333 15.2 24.9125 15.5958 25.0667 15.9292C25.425 16.7208 26.1917 17.1667 27.2542 17.1667H30.7458C32.2625 17.1667 33.1667 16.2625 33.1667 14.7458V13.7917V11.2542C33.1667 9.73751 32.2625 8.83334 30.7458 8.83334ZM32.4875 13.2083C32.1625 12.9292 31.6375 12.9292 31.3125 13.2083L29.5792 14.6958C29.2542 14.975 28.7292 14.975 28.4042 14.6958L28.2625 14.5792C27.9667 14.3208 27.4958 14.2958 27.1625 14.5208L25.6042 15.5667C25.5125 15.3333 25.4583 15.0625 25.4583 14.7458V11.2542C25.4583 10.0792 26.0792 9.45834 27.2542 9.45834H30.7458C31.9208 9.45834 32.5417 10.0792 32.5417 11.2542V13.2542L32.4875 13.2083Z" fill="white"/>
<circle cx="45" cy="13" r="12.5" fill="#353945" stroke="white"/>
<path d="M41.075 15.9208L41.0667 15.9292C40.9542 15.6833 40.8833 15.4042 40.8542 15.0958C40.8833 15.4 40.9625 15.675 41.075 15.9208Z" fill="white"/>
<path d="M43.75 12.325C44.2977 12.325 44.7417 11.881 44.7417 11.3333C44.7417 10.7857 44.2977 10.3417 43.75 10.3417C43.2023 10.3417 42.7583 10.7857 42.7583 11.3333C42.7583 11.881 43.2023 12.325 43.75 12.325Z" fill="white"/>
<path d="M46.7458 8.83334H43.2542C41.7375 8.83334 40.8333 9.73751 40.8333 11.2542V14.7458C40.8333 15.2 40.9125 15.5958 41.0667 15.9292C41.425 16.7208 42.1917 17.1667 43.2542 17.1667H46.7458C48.2625 17.1667 49.1667 16.2625 49.1667 14.7458V13.7917V11.2542C49.1667 9.73751 48.2625 8.83334 46.7458 8.83334ZM48.4875 13.2083C48.1625 12.9292 47.6375 12.9292 47.3125 13.2083L45.5792 14.6958C45.2542 14.975 44.7292 14.975 44.4042 14.6958L44.2625 14.5792C43.9667 14.3208 43.4958 14.2958 43.1625 14.5208L41.6042 15.5667C41.5125 15.3333 41.4583 15.0625 41.4583 14.7458V11.2542C41.4583 10.0792 42.0792 9.45834 43.2542 9.45834H46.7458C47.9208 9.45834 48.5417 10.0792 48.5417 11.2542V13.2542L48.4875 13.2083Z" fill="white"/>
<circle cx="61" cy="13" r="12.5" fill="#E6E8EC" stroke="white"/>
<path d="M60.328 13.345H58.627V15.091H57.439V13.345H55.738V12.247H57.439V10.501H58.627V12.247H60.328V13.345ZM61.9375 14.578C62.5135 14.098 62.9725 13.699 63.3145 13.381C63.6565 13.057 63.9415 12.721 64.1695 12.373C64.3975 12.025 64.5115 11.683 64.5115 11.347C64.5115 11.041 64.4395 10.801 64.2955 10.627C64.1515 10.453 63.9295 10.366 63.6295 10.366C63.3295 10.366 63.0985 10.468 62.9365 10.672C62.7745 10.87 62.6905 11.143 62.6845 11.491H61.4605C61.4845 10.771 61.6975 10.225 62.0995 9.853C62.5075 9.481 63.0235 9.295 63.6475 9.295C64.3315 9.295 64.8565 9.478 65.2225 9.844C65.5885 10.204 65.7715 10.681 65.7715 11.275C65.7715 11.743 65.6455 12.19 65.3935 12.616C65.1415 13.042 64.8535 13.414 64.5295 13.732C64.2055 14.044 63.7825 14.422 63.2605 14.866H65.9155V15.91H61.4695V14.974L61.9375 14.578Z" fill="#353945"/>
</svg>
