<svg width="34" height="22" viewBox="0 0 34 22" fill="none" xmlns="http://www.w3.org/2000/svg">
<rect width="20" height="20" transform="translate(1 1)" fill="white"/>
<circle cx="11" cy="11" r="10.5" fill="#353945" stroke="white"/>
<path d="M7.72916 13.434L7.72222 13.441C7.62847 13.2361 7.56944 13.0035 7.54514 12.7465C7.56944 13 7.63541 13.2292 7.72916 13.434Z" fill="white"/>
<path d="M9.95835 10.4375C10.4147 10.4375 10.7847 10.0675 10.7847 9.61111C10.7847 9.15471 10.4147 8.78472 9.95835 8.78472C9.50194 8.78472 9.13196 9.15471 9.13196 9.61111C9.13196 10.0675 9.50194 10.4375 9.95835 10.4375Z" fill="white"/>
<path d="M12.4549 7.52778H9.54516C8.28127 7.52778 7.5278 8.28125 7.5278 9.54514V12.4549C7.5278 12.8333 7.59377 13.1632 7.72225 13.441C8.02086 14.1007 8.65975 14.4722 9.54516 14.4722H12.4549C13.7188 14.4722 14.4722 13.7188 14.4722 12.4549V11.6597V9.54514C14.4722 8.28125 13.7188 7.52778 12.4549 7.52778ZM13.9063 11.1736C13.6354 10.941 13.1979 10.941 12.9271 11.1736L11.4827 12.4132C11.2118 12.6458 10.7743 12.6458 10.5035 12.4132L10.3854 12.316C10.1389 12.1007 9.74655 12.0799 9.46877 12.2674L8.17016 13.1389C8.09377 12.9444 8.04863 12.7188 8.04863 12.4549V9.54514C8.04863 8.56597 8.566 8.04861 9.54516 8.04861H12.4549C13.4341 8.04861 13.9514 8.56597 13.9514 9.54514V11.2118L13.9063 11.1736Z" fill="white"/>
<circle cx="23" cy="11" r="10.5" fill="#353945" stroke="white"/>
<path d="M19.7292 13.434L19.7222 13.441C19.6285 13.2361 19.5694 13.0035 19.5451 12.7465C19.5694 13 19.6354 13.2292 19.7292 13.434Z" fill="white"/>
<path d="M21.9583 10.4375C22.4147 10.4375 22.7847 10.0675 22.7847 9.61111C22.7847 9.15471 22.4147 8.78472 21.9583 8.78472C21.5019 8.78472 21.132 9.15471 21.132 9.61111C21.132 10.0675 21.5019 10.4375 21.9583 10.4375Z" fill="white"/>
<path d="M24.4549 7.52778H21.5452C20.2813 7.52778 19.5278 8.28125 19.5278 9.54514V12.4549C19.5278 12.8333 19.5938 13.1632 19.7222 13.441C20.0209 14.1007 20.6597 14.4722 21.5452 14.4722H24.4549C25.7188 14.4722 26.4722 13.7188 26.4722 12.4549V11.6597V9.54514C26.4722 8.28125 25.7188 7.52778 24.4549 7.52778ZM25.9063 11.1736C25.6354 10.941 25.1979 10.941 24.9271 11.1736L23.4827 12.4132C23.2118 12.6458 22.7743 12.6458 22.5035 12.4132L22.3854 12.316C22.1389 12.1007 21.7466 12.0799 21.4688 12.2674L20.1702 13.1389C20.0938 12.9444 20.0486 12.7188 20.0486 12.4549V9.54514C20.0486 8.56597 20.566 8.04861 21.5452 8.04861H24.4549C25.4341 8.04861 25.9514 8.56597 25.9514 9.54514V11.2118L25.9063 11.1736Z" fill="white"/>
</svg>
